<?xml version="1.0" standalone="no"?>
<!DOCTYPE svg PUBLIC "-//W3C//DTD SVG 20010904//EN"
 "http://www.w3.org/TR/2001/REC-SVG-20010904/DTD/svg10.dtd">
<svg version="1.0" xmlns="http://www.w3.org/2000/svg"
 width="512.000000pt" height="512.000000pt" viewBox="0 0 512.000000 512.000000"
 preserveAspectRatio="xMidYMid meet">
<metadata>
Created by potrace 1.13, written by Peter Selinger 2001-2015
</metadata>
<g transform="translate(0.000000,512.000000) scale(0.100000,-0.100000)"
fill="#000000" stroke="none">
<path d="M2010 3870 c-129 -14 -329 -57 -432 -93 l-93 -32 -61 -123 c-68 -139
-125 -286 -156 -406 -12 -45 -23 -83 -25 -85 -8 -11 -43 35 -43 56 0 13 -6 39
-14 57 -12 29 -20 34 -62 41 -69 10 -206 8 -251 -4 -34 -9 -41 -16 -51 -50
-15 -49 -15 -153 -1 -202 11 -35 16 -39 61 -48 27 -6 67 -11 90 -11 33 0 73
-16 116 -46 2 -1 -11 -24 -28 -50 -94 -148 -102 -396 -26 -828 25 -142 41
-177 88 -192 16 -5 18 -17 18 -94 0 -82 2 -91 23 -104 85 -53 341 -64 509 -21
88 22 98 34 98 113 l0 65 143 -6 c78 -4 183 -7 233 -7 l90 0 50 -72 c72 -108
204 -236 314 -307 110 -71 205 -113 339 -149 84 -22 116 -26 261 -26 183 0
270 15 418 75 315 126 570 414 659 744 24 90 27 117 27 280 1 159 -2 191 -23
270 -99 378 -373 671 -738 791 -90 29 -241 54 -330 54 l-62 0 -69 144 -69 144
-79 25 c-215 71 -383 97 -639 102 -110 2 -238 0 -285 -5z m513 -315 c54 -8
137 -24 185 -35 l87 -21 22 -50 22 -50 -32 -11 c-72 -25 -201 -99 -283 -164
l-89 -69 -215 -2 c-209 -1 -425 -19 -586 -47 -43 -7 -80 -13 -82 -11 -6 5 74
238 109 315 l41 87 56 16 c219 60 522 77 765 42z m617 -511 c51 -70 66 -84 74
-72 112 152 119 160 156 153 256 -48 504 -271 584 -525 44 -139 46 -127 -44
-195 -44 -33 -80 -63 -80 -66 0 -4 10 -13 23 -22 12 -8 47 -34 78 -58 l56 -44
-18 -70 c-55 -214 -219 -410 -425 -510 -80 -39 -192 -72 -216 -62 -9 3 -38 35
-65 71 -26 36 -53 65 -58 66 -6 0 -34 -31 -64 -70 -61 -81 -64 -82 -178 -45
-227 72 -426 265 -505 490 -47 131 -48 124 43 190 43 33 79 62 79 65 0 3 -36
33 -80 66 -79 58 -81 60 -75 94 33 192 171 395 347 513 84 55 228 114 288 116
9 1 45 -38 80 -85z m-1657 -304 c99 -41 209 -113 261 -171 47 -53 53 -67 36
-98 -41 -77 -396 -80 -518 -4 -153 94 -136 270 28 302 61 12 112 4 193 -29z"/>
<path d="M2866 2854 l-37 -25 19 -32 c11 -18 61 -109 111 -203 90 -167 92
-173 85 -221 -13 -98 50 -178 149 -190 31 -4 52 -16 84 -46 l42 -40 40 26 41
27 -21 52 c-11 29 -22 55 -25 60 -3 4 1 27 7 50 9 31 43 77 122 166 115 130
118 138 74 180 l-22 21 -102 -64 c-161 -101 -189 -116 -206 -109 -9 3 -81 86
-161 184 -81 99 -150 181 -154 184 -5 3 -25 -6 -46 -20z"/>
</g>
</svg>
